<?xml version="1.0"?>
<svg xmlns="http://www.w3.org/2000/svg" viewBox="0 0 24 24">
    <path d="M 8.5 4 C 6.5670034 4 5 5.5670034 5 7.5 C 5 9.4329966 6.5670034 11 8.5 11 C 10.432997 11 12 9.4329966 12 7.5 C 12 5.5670034 10.432997 4 8.5 4 z M 17.5 10 C 16.119288 10 15 11.119288 15 12.5 C 15 13.880712 16.119288 15 17.5 15 C 18.880712 15 20 13.880712 20 12.5 C 20 11.119288 18.880712 10 17.5 10 z M 8.5 12 C 3.563 12 2 15.5625 2 15.5625 L 2 20 L 12 20 L 12 18.46875 L 12.0625 18.28125 C 12.1035 18.18025 12.87575 16.392 14.96875 15.5 C 14.73775 15.034 13.058 12 8.5 12 z M 17.5 16 C 14.082 16 13 18.65625 13 18.65625 L 13 20 L 22 20 L 22 18.65625 C 22 18.65625 20.918 16 17.5 16 z"/>
</svg>
